<?xml version="1.0" encoding="UTF-8" standalone="no"?>
<!DOCTYPE svg PUBLIC "-//W3C//DTD SVG 1.1//EN"
 "http://www.w3.org/Graphics/SVG/1.1/DTD/svg11.dtd">
<!-- Generated by graphviz version 2.43.0 (0)
 -->
<!-- Title: target_state Pages: 1 -->
<svg width="2667pt" height="703pt"
 viewBox="0.00 0.00 2667.00 703.00" xmlns="http://www.w3.org/2000/svg" xmlns:xlink="http://www.w3.org/1999/xlink">
<g id="graph0" class="graph" transform="scale(1 1) rotate(0) translate(4 699)">
<title>target_state</title>
<polygon fill="white" stroke="transparent" points="-4,4 -4,-699 2663,-699 2663,4 -4,4"/>
<text text-anchor="middle" x="1329.5" y="-681.4" font-family="Times,serif" font-size="12.00">Target State Architecture (Michael vision + vsp execution + SAP Cloud ALM)</text>
<g id="clust1" class="cluster">
<title>cluster_intent</title>
<path fill="none" stroke="black" d="M20,-539C20,-539 1185.5,-539 1185.5,-539 1191.5,-539 1197.5,-545 1197.5,-551 1197.5,-551 1197.5,-654 1197.5,-654 1197.5,-660 1191.5,-666 1185.5,-666 1185.5,-666 20,-666 20,-666 14,-666 8,-660 8,-654 8,-654 8,-551 8,-551 8,-545 14,-539 20,-539"/>
<text text-anchor="middle" x="602.75" y="-652.4" font-family="Times,serif" font-size="12.00">Developer / Intent</text>
</g>
<g id="clust2" class="cluster">
<title>cluster_agent</title>
<path fill="none" stroke="black" d="M226,-8C226,-8 800.5,-8 800.5,-8 806.5,-8 812.5,-14 812.5,-20 812.5,-20 812.5,-69 812.5,-69 812.5,-75 806.5,-81 800.5,-81 800.5,-81 226,-81 226,-81 220,-81 214,-75 214,-69 214,-69 214,-20 214,-20 214,-14 220,-8 226,-8"/>
<text text-anchor="middle" x="513.25" y="-67.4" font-family="Times,serif" font-size="12.00">AI Runtime</text>
</g>
<g id="clust3" class="cluster">
<title>cluster_mcp</title>
<path fill="none" stroke="black" d="M493,-89C493,-89 1195,-89 1195,-89 1201,-89 1207,-95 1207,-101 1207,-101 1207,-402 1207,-402 1207,-408 1201,-414 1195,-414 1195,-414 493,-414 493,-414 487,-414 481,-408 481,-402 481,-402 481,-101 481,-101 481,-95 487,-89 493,-89"/>
<text text-anchor="middle" x="844" y="-400.4" font-family="Times,serif" font-size="12.00">MCP Layer</text>
</g>
<g id="clust4" class="cluster">
<title>cluster_sap</title>
<path fill="none" stroke="black" d="M2330,-82C2330,-82 2474,-82 2474,-82 2480,-82 2486,-88 2486,-94 2486,-94 2486,-317 2486,-317 2486,-323 2480,-329 2474,-329 2474,-329 2330,-329 2330,-329 2324,-329 2318,-323 2318,-317 2318,-317 2318,-94 2318,-94 2318,-88 2324,-82 2330,-82"/>
<text text-anchor="middle" x="2402" y="-315.4" font-family="Times,serif" font-size="12.00">SAP Landscape</text>
</g>
<g id="clust5" class="cluster">
<title>cluster_devops</title>
<path fill="none" stroke="black" d="M1051.5,-422C1051.5,-422 2115.5,-422 2115.5,-422 2121.5,-422 2127.5,-428 2127.5,-434 2127.5,-434 2127.5,-489 2127.5,-489 2127.5,-495 2121.5,-501 2115.5,-501 2115.5,-501 1051.5,-501 1051.5,-501 1045.5,-501 1039.5,-495 1039.5,-489 1039.5,-489 1039.5,-434 1039.5,-434 1039.5,-428 1045.5,-422 1051.5,-422"/>
<text text-anchor="middle" x="1583.5" y="-487.4" font-family="Times,serif" font-size="12.00">DevOps / CI</text>
</g>
<g id="clust6" class="cluster">
<title>cluster_alm</title>
<path fill="none" stroke="black" d="M1973,-509C1973,-509 2639,-509 2639,-509 2645,-509 2651,-515 2651,-521 2651,-521 2651,-586 2651,-586 2651,-592 2645,-598 2639,-598 2639,-598 1973,-598 1973,-598 1967,-598 1961,-592 1961,-586 1961,-586 1961,-521 1961,-521 1961,-515 1967,-509 1973,-509"/>
<text text-anchor="middle" x="2306" y="-584.4" font-family="Times,serif" font-size="12.00">ALM / Governance</text>
</g>
<g id="clust7" class="cluster">
<title>cluster_test</title>
<path fill="none" stroke="black" d="M1631,-547C1631,-547 1836,-547 1836,-547 1842,-547 1848,-553 1848,-559 1848,-559 1848,-608 1848,-608 1848,-614 1842,-620 1836,-620 1836,-620 1631,-620 1631,-620 1625,-620 1619,-614 1619,-608 1619,-608 1619,-559 1619,-559 1619,-553 1625,-547 1631,-547"/>
<text text-anchor="middle" x="1733.5" y="-606.4" font-family="Times,serif" font-size="12.00">E2E / Regression Testing (optional)</text>
</g>
<!-- Engineer -->
<g id="node1" class="node">
<title>Engineer</title>
<path fill="none" stroke="black" d="M327.5,-636C327.5,-636 257.5,-636 257.5,-636 251.5,-636 245.5,-630 245.5,-624 245.5,-624 245.5,-612 245.5,-612 245.5,-606 251.5,-600 257.5,-600 257.5,-600 327.5,-600 327.5,-600 333.5,-600 339.5,-606 339.5,-612 339.5,-612 339.5,-624 339.5,-624 339.5,-630 333.5,-636 327.5,-636"/>
<text text-anchor="middle" x="292.5" y="-621" font-family="Times,serif" font-size="10.00">Engineer</text>
<text text-anchor="middle" x="292.5" y="-610" font-family="Times,serif" font-size="10.00">(intent, review)</text>
</g>
<!-- VSCode -->
<g id="node2" class="node">
<title>VSCode</title>
<path fill="none" stroke="black" d="M736.5,-634C736.5,-634 639.5,-634 639.5,-634 633.5,-634 627.5,-628 627.5,-622 627.5,-622 627.5,-610 627.5,-610 627.5,-604 633.5,-598 639.5,-598 639.5,-598 736.5,-598 736.5,-598 742.5,-598 748.5,-604 748.5,-610 748.5,-610 748.5,-622 748.5,-622 748.5,-628 742.5,-634 736.5,-634"/>
<text text-anchor="middle" x="688" y="-619" font-family="Times,serif" font-size="10.00">VS Code + SAP ADT</text>
<text text-anchor="middle" x="688" y="-608" font-family="Times,serif" font-size="10.00">(agentic coding UI)</text>
</g>
<!-- Engineer&#45;&gt;VSCode -->
<g id="edge1" class="edge">
<title>Engineer&#45;&gt;VSCode</title>
<path fill="none" stroke="black" d="M339.8,-617.76C408.24,-617.42 536.92,-616.76 616.95,-616.36"/>
<polygon fill="black" stroke="black" points="617.44,-619.85 627.42,-616.3 617.41,-612.85 617.44,-619.85"/>
</g>
<!-- LLM -->
<g id="node6" class="node">
<title>LLM</title>
<path fill="none" stroke="black" d="M351,-52C351,-52 234,-52 234,-52 228,-52 222,-46 222,-40 222,-40 222,-28 222,-28 222,-22 228,-16 234,-16 234,-16 351,-16 351,-16 357,-16 363,-22 363,-28 363,-28 363,-40 363,-40 363,-46 357,-52 351,-52"/>
<text text-anchor="middle" x="292.5" y="-37" font-family="Times,serif" font-size="10.00">AI LLM / Agent Runtime</text>
<text text-anchor="middle" x="292.5" y="-26" font-family="Times,serif" font-size="10.00">(Roo/Cline/Claude/…)</text>
</g>
<!-- Engineer&#45;&gt;LLM -->
<g id="edge20" class="edge">
<title>Engineer&#45;&gt;LLM</title>
<path fill="none" stroke="black" stroke-dasharray="5,2" d="M292.5,-599.8C292.5,-515.77 292.5,-164.96 292.5,-62.32"/>
<polygon fill="black" stroke="black" points="296,-62.12 292.5,-52.12 289,-62.12 296,-62.12"/>
<text text-anchor="middle" x="284.5" y="-323.8" font-family="Times,serif" font-size="9.00">review gates</text>
</g>
<!-- cloudalmlink -->
<g id="node3" class="node">
<title>cloudalmlink</title>
<path fill="none" stroke="black" d="M1177.5,-636.5C1177.5,-636.5 1058.5,-636.5 1058.5,-636.5 1052.5,-636.5 1046.5,-630.5 1046.5,-624.5 1046.5,-624.5 1046.5,-607.5 1046.5,-607.5 1046.5,-601.5 1052.5,-595.5 1058.5,-595.5 1058.5,-595.5 1177.5,-595.5 1177.5,-595.5 1183.5,-595.5 1189.5,-601.5 1189.5,-607.5 1189.5,-607.5 1189.5,-624.5 1189.5,-624.5 1189.5,-630.5 1183.5,-636.5 1177.5,-636.5"/>
<text text-anchor="middle" x="1118" y="-624.5" font-family="Times,serif" font-size="10.00">cloudalmlink</text>
<text text-anchor="middle" x="1118" y="-613.5" font-family="Times,serif" font-size="10.00">(Eclipse/VS Code)</text>
<text text-anchor="middle" x="1118" y="-602.5" font-family="Times,serif" font-size="10.00">Feature ID ↔ Cloud ALM</text>
</g>
<!-- VSCode&#45;&gt;cloudalmlink -->
<g id="edge3" class="edge">
<title>VSCode&#45;&gt;cloudalmlink</title>
<path fill="none" stroke="black" d="M748.51,-616C823.37,-616 952.23,-616 1036.02,-616"/>
<polygon fill="black" stroke="black" points="1036.26,-619.5 1046.26,-616 1036.26,-612.5 1036.26,-619.5"/>
<text text-anchor="middle" x="962" y="-618.8" font-family="Times,serif" font-size="9.00">feature IDs in comments</text>
</g>
<!-- VSCode&#45;&gt;LLM -->
<g id="edge19" class="edge">
<title>VSCode&#45;&gt;LLM</title>
<path fill="none" stroke="black" d="M654.08,-597.87C591.04,-561.42 453.12,-472.97 381,-360 318.81,-262.58 300.51,-121.78 295.38,-62.26"/>
<polygon fill="black" stroke="black" points="298.86,-61.81 294.57,-52.12 291.88,-62.37 298.86,-61.81"/>
<text text-anchor="middle" x="426" y="-462.8" font-family="Times,serif" font-size="9.00">prompts / intent</text>
</g>
<!-- CloudALM -->
<g id="node21" class="node">
<title>CloudALM</title>
<path fill="none" stroke="black" d="M2181,-569C2181,-569 1981,-569 1981,-569 1975,-569 1969,-563 1969,-557 1969,-557 1969,-529 1969,-529 1969,-523 1975,-517 1981,-517 1981,-517 2181,-517 2181,-517 2187,-517 2193,-523 2193,-529 2193,-529 2193,-557 2193,-557 2193,-563 2187,-569 2181,-569"/>
<text text-anchor="middle" x="2081" y="-557" font-family="Times,serif" font-size="10.00">SAP Cloud ALM</text>
<text text-anchor="middle" x="2081" y="-546" font-family="Times,serif" font-size="10.00">(features workflow, approvals,</text>
<text text-anchor="middle" x="2081" y="-535" font-family="Times,serif" font-size="10.00">transport checks, deployment scheduler,</text>
<text text-anchor="middle" x="2081" y="-524" font-family="Times,serif" font-size="10.00">evidence store)</text>
</g>
<!-- cloudalmlink&#45;&gt;CloudALM -->
<g id="edge29" class="edge">
<title>cloudalmlink&#45;&gt;CloudALM</title>
<path fill="none" stroke="black" stroke-dasharray="5,2" d="M1189.51,-625.04C1320.41,-640 1609.34,-664.46 1848,-624 1905.53,-614.25 1967.81,-591.79 2013.34,-573"/>
<polygon fill="black" stroke="black" points="2014.92,-576.13 2022.79,-569.05 2012.22,-569.67 2014.92,-576.13"/>
<text text-anchor="middle" x="1533.5" y="-648.8" font-family="Times,serif" font-size="9.00">open feature links</text>
</g>
<!-- Jira -->
<g id="node4" class="node">
<title>Jira</title>
<path fill="none" stroke="black" d="M105,-637C105,-637 46,-637 46,-637 40,-637 34,-631 34,-625 34,-625 34,-613 34,-613 34,-607 40,-601 46,-601 46,-601 105,-601 105,-601 111,-601 117,-607 117,-613 117,-613 117,-625 117,-625 117,-631 111,-637 105,-637"/>
<text text-anchor="middle" x="75.5" y="-622" font-family="Times,serif" font-size="10.00">Jira</text>
<text text-anchor="middle" x="75.5" y="-611" font-family="Times,serif" font-size="10.00">(user stories)</text>
</g>
<!-- Jira&#45;&gt;Engineer -->
<g id="edge2" class="edge">
<title>Jira&#45;&gt;Engineer</title>
<path fill="none" stroke="black" d="M117.19,-618.81C150.58,-618.66 198.2,-618.43 235.23,-618.26"/>
<polygon fill="black" stroke="black" points="235.4,-621.76 245.38,-618.21 235.36,-614.76 235.4,-621.76"/>
</g>
<!-- Jira&#45;&gt;LLM -->
<g id="edge21" class="edge">
<title>Jira&#45;&gt;LLM</title>
<path fill="none" stroke="black" d="M117.13,-605.91C123.81,-602.27 130.14,-597.7 135,-592 135.56,-591.34 252.14,-174.69 283.7,-61.88"/>
<polygon fill="black" stroke="black" points="287.08,-62.8 286.4,-52.22 280.34,-60.91 287.08,-62.8"/>
<text text-anchor="middle" x="178.5" y="-525.8" font-family="Times,serif" font-size="9.00">work items</text>
</g>
<!-- Confluence -->
<g id="node5" class="node">
<title>Confluence</title>
<path fill="none" stroke="black" d="M123,-583C123,-583 28,-583 28,-583 22,-583 16,-577 16,-571 16,-571 16,-559 16,-559 16,-553 22,-547 28,-547 28,-547 123,-547 123,-547 129,-547 135,-553 135,-559 135,-559 135,-571 135,-571 135,-577 129,-583 123,-583"/>
<text text-anchor="middle" x="75.5" y="-568" font-family="Times,serif" font-size="10.00">Confluence</text>
<text text-anchor="middle" x="75.5" y="-557" font-family="Times,serif" font-size="10.00">(design docs, ADRs)</text>
</g>
<!-- Agents -->
<g id="node7" class="node">
<title>Agents</title>
<path fill="none" stroke="black" d="M792.5,-52C792.5,-52 583.5,-52 583.5,-52 577.5,-52 571.5,-46 571.5,-40 571.5,-40 571.5,-28 571.5,-28 571.5,-22 577.5,-16 583.5,-16 583.5,-16 792.5,-16 792.5,-16 798.5,-16 804.5,-22 804.5,-28 804.5,-28 804.5,-40 804.5,-40 804.5,-46 798.5,-52 792.5,-52"/>
<text text-anchor="middle" x="688" y="-37" font-family="Times,serif" font-size="10.00">Agent Fleet (optional)</text>
<text text-anchor="middle" x="688" y="-26" font-family="Times,serif" font-size="10.00">Coding • Testing • Security • Performance</text>
</g>
<!-- LLM&#45;&gt;Agents -->
<g id="edge4" class="edge">
<title>LLM&#45;&gt;Agents</title>
<path fill="none" stroke="black" stroke-dasharray="5,2" d="M363.4,-34C418.11,-34 495.64,-34 561.1,-34"/>
<polygon fill="black" stroke="black" points="561.5,-37.5 571.5,-34 561.5,-30.5 561.5,-37.5"/>
<text text-anchor="middle" x="426" y="-36.8" font-family="Times,serif" font-size="9.00">specialization</text>
</g>
<!-- vsp -->
<g id="node8" class="node">
<title>vsp</title>
<path fill="none" stroke="black" d="M501,-98C501,-98 875,-98 875,-98 881,-98 887,-104 887,-110 887,-110 887,-264 887,-264 887,-270 881,-276 875,-276 875,-276 501,-276 501,-276 495,-276 489,-270 489,-264 489,-264 489,-110 489,-110 489,-104 495,-98 501,-98"/>
<text text-anchor="middle" x="572" y="-184.5" font-family="Times,serif" font-size="10.00">vsp MCP Server (Mode: stdio</text>
<polyline fill="none" stroke="black" points="655,-98 655,-276 "/>
<text text-anchor="middle" x="680" y="-184.5" font-family="Times,serif" font-size="10.00">HTTP)</text>
<polyline fill="none" stroke="black" points="705,-98 705,-276 "/>
<text text-anchor="start" x="713" y="-264" font-family="Times,serif" font-size="10.00">Execution Tools:</text>
<text text-anchor="start" x="713" y="-253" font-family="Times,serif" font-size="10.00">• CRUD/Activate/Lock</text>
<text text-anchor="start" x="713" y="-242" font-family="Times,serif" font-size="10.00">• Debug + Test</text>
<text text-anchor="start" x="713" y="-231" font-family="Times,serif" font-size="10.00">• CTS/Transports</text>
<text text-anchor="start" x="713" y="-220" font-family="Times,serif" font-size="10.00">• abapGit sync</text>
<polyline fill="none" stroke="black" points="705,-213 887,-213 "/>
<text text-anchor="start" x="713" y="-201" font-family="Times,serif" font-size="10.00">Policy &amp; Safety:</text>
<text text-anchor="start" x="713" y="-190" font-family="Times,serif" font-size="10.00">• /CBA/ namespace enforcement</text>
<text text-anchor="start" x="713" y="-179" font-family="Times,serif" font-size="10.00">• package allowlist</text>
<text text-anchor="start" x="713" y="-168" font-family="Times,serif" font-size="10.00">• prod read&#45;only</text>
<polyline fill="none" stroke="black" points="705,-161 887,-161 "/>
<text text-anchor="start" x="713" y="-149" font-family="Times,serif" font-size="10.00">Just&#45;in&#45;time SKILLS:</text>
<text text-anchor="start" x="713" y="-138" font-family="Times,serif" font-size="10.00">• Query guidelines</text>
<text text-anchor="start" x="713" y="-127" font-family="Times,serif" font-size="10.00">• Validate standards</text>
<text text-anchor="start" x="713" y="-116" font-family="Times,serif" font-size="10.00">• Learn from incidents</text>
<text text-anchor="start" x="713" y="-105" font-family="Times,serif" font-size="10.00">(caching + rate limits)</text>
</g>
<!-- LLM&#45;&gt;vsp -->
<g id="edge22" class="edge">
<title>LLM&#45;&gt;vsp</title>
<path fill="none" stroke="black" d="M339.8,-52C375.16,-65.75 426.6,-85.75 479.1,-106.17"/>
<polygon fill="black" stroke="black" points="477.98,-109.48 488.57,-109.85 480.52,-102.96 477.98,-109.48"/>
<text text-anchor="middle" x="426" y="-104.8" font-family="Times,serif" font-size="9.00">MCP tools/call</text>
</g>
<!-- Atlassian_MCP -->
<g id="node11" class="node">
<title>Atlassian_MCP</title>
<path fill="none" stroke="black" d="M732.5,-385C732.5,-385 643.5,-385 643.5,-385 637.5,-385 631.5,-379 631.5,-373 631.5,-373 631.5,-361 631.5,-361 631.5,-355 637.5,-349 643.5,-349 643.5,-349 732.5,-349 732.5,-349 738.5,-349 744.5,-355 744.5,-361 744.5,-361 744.5,-373 744.5,-373 744.5,-379 738.5,-385 732.5,-385"/>
<text text-anchor="middle" x="688" y="-370" font-family="Times,serif" font-size="10.00">Atlassian MCP</text>
<text text-anchor="middle" x="688" y="-359" font-family="Times,serif" font-size="10.00">(Jira + Confluence)</text>
</g>
<!-- LLM&#45;&gt;Atlassian_MCP -->
<g id="edge7" class="edge">
<title>LLM&#45;&gt;Atlassian_MCP</title>
<path fill="none" stroke="black" d="M294.97,-52.23C299.54,-97.89 317.32,-218.64 381,-291 440.72,-358.86 550.71,-370.79 621.28,-370.72"/>
<polygon fill="black" stroke="black" points="621.42,-374.22 631.39,-370.63 621.36,-367.22 621.42,-374.22"/>
<text text-anchor="middle" x="426" y="-348.8" font-family="Times,serif" font-size="9.00">read/write via MCP</text>
</g>
<!-- OData_MCP -->
<g id="node12" class="node">
<title>OData_MCP</title>
<path fill="none" stroke="black" d="M747,-331C747,-331 629,-331 629,-331 623,-331 617,-325 617,-319 617,-319 617,-307 617,-307 617,-301 623,-295 629,-295 629,-295 747,-295 747,-295 753,-295 759,-301 759,-307 759,-307 759,-319 759,-319 759,-325 753,-331 747,-331"/>
<text text-anchor="middle" x="688" y="-316" font-family="Times,serif" font-size="10.00">odata_mcp_go (optional)</text>
<text text-anchor="middle" x="688" y="-305" font-family="Times,serif" font-size="10.00">NL → OData queries</text>
</g>
<!-- LLM&#45;&gt;OData_MCP -->
<g id="edge8" class="edge">
<title>LLM&#45;&gt;OData_MCP</title>
<path fill="none" stroke="black" stroke-dasharray="5,2" d="M300.96,-52.13C321.57,-99.64 384.21,-228.01 481,-285 518.56,-307.12 566.53,-314.6 606.72,-316.33"/>
<polygon fill="black" stroke="black" points="606.66,-319.83 616.76,-316.65 606.88,-312.83 606.66,-319.83"/>
<text text-anchor="middle" x="426" y="-279.8" font-family="Times,serif" font-size="9.00">data queries</text>
</g>
<!-- CBA_Docs -->
<g id="node9" class="node">
<title>CBA_Docs</title>
<path fill="none" stroke="black" d="M1173,-251C1173,-251 1063,-251 1063,-251 1057,-251 1051,-245 1051,-239 1051,-239 1051,-227 1051,-227 1051,-221 1057,-215 1063,-215 1063,-215 1173,-215 1173,-215 1179,-215 1185,-221 1185,-227 1185,-227 1185,-239 1185,-239 1185,-245 1179,-251 1173,-251"/>
<text text-anchor="middle" x="1118" y="-236" font-family="Times,serif" font-size="10.00">CBA ABAP Docs MCP</text>
<text text-anchor="middle" x="1118" y="-225" font-family="Times,serif" font-size="10.00">(guardrails, standards)</text>
</g>
<!-- vsp&#45;&gt;CBA_Docs -->
<g id="edge5" class="edge">
<title>vsp&#45;&gt;CBA_Docs</title>
<path fill="none" stroke="black" d="M887.03,-208.28C941.53,-214.14 997.42,-220.15 1040.45,-224.77"/>
<polygon fill="black" stroke="black" points="1040.23,-228.27 1050.55,-225.86 1040.98,-221.31 1040.23,-228.27"/>
<text text-anchor="middle" x="962" y="-224.8" font-family="Times,serif" font-size="9.00">SKILLS (JIT)</text>
</g>
<!-- CBA_KB -->
<g id="node10" class="node">
<title>CBA_KB</title>
<path fill="none" stroke="black" d="M1187,-305C1187,-305 1049,-305 1049,-305 1043,-305 1037,-299 1037,-293 1037,-293 1037,-281 1037,-281 1037,-275 1043,-269 1049,-269 1049,-269 1187,-269 1187,-269 1193,-269 1199,-275 1199,-281 1199,-281 1199,-293 1199,-293 1199,-299 1193,-305 1187,-305"/>
<text text-anchor="middle" x="1118" y="-290" font-family="Times,serif" font-size="10.00">CBA Knowledge MCP</text>
<text text-anchor="middle" x="1118" y="-279" font-family="Times,serif" font-size="10.00">(incidents, tribal knowledge)</text>
</g>
<!-- vsp&#45;&gt;CBA_KB -->
<g id="edge6" class="edge">
<title>vsp&#45;&gt;CBA_KB</title>
<path fill="none" stroke="black" d="M887.03,-233.27C937.27,-245.01 988.7,-257.02 1030.14,-266.71"/>
<polygon fill="black" stroke="black" points="1029.38,-270.12 1039.91,-268.99 1030.97,-263.31 1029.38,-270.12"/>
<text text-anchor="middle" x="962" y="-265.8" font-family="Times,serif" font-size="9.00">SKILLS (JIT)</text>
</g>
<!-- SAP -->
<g id="node13" class="node">
<title>SAP</title>
<path fill="none" stroke="black" d="M2442,-245.5C2442,-245.5 2362,-245.5 2362,-245.5 2356,-245.5 2350,-239.5 2350,-233.5 2350,-233.5 2350,-216.5 2350,-216.5 2350,-210.5 2356,-204.5 2362,-204.5 2362,-204.5 2442,-204.5 2442,-204.5 2448,-204.5 2454,-210.5 2454,-216.5 2454,-216.5 2454,-233.5 2454,-233.5 2454,-239.5 2448,-245.5 2442,-245.5"/>
<text text-anchor="middle" x="2402" y="-233.5" font-family="Times,serif" font-size="10.00">SAP System(s)</text>
<text text-anchor="middle" x="2402" y="-222.5" font-family="Times,serif" font-size="10.00">DEV/QAS/PRD</text>
<text text-anchor="middle" x="2402" y="-211.5" font-family="Times,serif" font-size="10.00">(ADT REST APIs)</text>
</g>
<!-- vsp&#45;&gt;SAP -->
<g id="edge9" class="edge">
<title>vsp&#45;&gt;SAP</title>
<path fill="none" stroke="black" d="M887.17,-187C959.5,-187 1041.95,-187 1117,-187 1117,-187 1117,-187 2082,-187 2172.26,-187 2275.89,-202.19 2339.91,-213.36"/>
<polygon fill="black" stroke="black" points="2339.38,-216.82 2349.84,-215.12 2340.6,-209.93 2339.38,-216.82"/>
<text text-anchor="middle" x="1533.5" y="-189.8" font-family="Times,serif" font-size="9.00">ADT REST API calls</text>
</g>
<!-- ATC -->
<g id="node14" class="node">
<title>ATC</title>
<path fill="none" stroke="black" d="M2466,-186C2466,-186 2338,-186 2338,-186 2332,-186 2326,-180 2326,-174 2326,-174 2326,-162 2326,-162 2326,-156 2332,-150 2338,-150 2338,-150 2466,-150 2466,-150 2472,-150 2478,-156 2478,-162 2478,-162 2478,-174 2478,-174 2478,-180 2472,-186 2466,-186"/>
<text text-anchor="middle" x="2402" y="-171" font-family="Times,serif" font-size="10.00">SAP ATC</text>
<text text-anchor="middle" x="2402" y="-160" font-family="Times,serif" font-size="10.00">(quality &amp; security checks)</text>
</g>
<!-- vsp&#45;&gt;ATC -->
<g id="edge10" class="edge">
<title>vsp&#45;&gt;ATC</title>
<path fill="none" stroke="black" d="M887.11,-162.05C959.35,-154.9 1041.75,-149 1117,-149 1117,-149 1117,-149 2082,-149 2161.39,-149 2251.7,-154.94 2315.91,-160.17"/>
<polygon fill="black" stroke="black" points="2315.73,-163.67 2325.99,-161.01 2316.31,-156.69 2315.73,-163.67"/>
<text text-anchor="middle" x="1533.5" y="-151.8" font-family="Times,serif" font-size="9.00">run ATC / parse results</text>
</g>
<!-- CBA_Test -->
<g id="node15" class="node">
<title>CBA_Test</title>
<path fill="none" stroke="black" d="M2452.5,-131.5C2452.5,-131.5 2351.5,-131.5 2351.5,-131.5 2345.5,-131.5 2339.5,-125.5 2339.5,-119.5 2339.5,-119.5 2339.5,-102.5 2339.5,-102.5 2339.5,-96.5 2345.5,-90.5 2351.5,-90.5 2351.5,-90.5 2452.5,-90.5 2452.5,-90.5 2458.5,-90.5 2464.5,-96.5 2464.5,-102.5 2464.5,-102.5 2464.5,-119.5 2464.5,-119.5 2464.5,-125.5 2458.5,-131.5 2452.5,-131.5"/>
<text text-anchor="middle" x="2402" y="-119.5" font-family="Times,serif" font-size="10.00">CBA Test Framework</text>
<text text-anchor="middle" x="2402" y="-108.5" font-family="Times,serif" font-size="10.00">(test libs, data mgmt,</text>
<text text-anchor="middle" x="2402" y="-97.5" font-family="Times,serif" font-size="10.00">case mgmt)</text>
</g>
<!-- vsp&#45;&gt;CBA_Test -->
<g id="edge12" class="edge">
<title>vsp&#45;&gt;CBA_Test</title>
<path fill="none" stroke="black" d="M887.22,-136.89C959.1,-122.68 1041.25,-111 1117,-111 1117,-111 1117,-111 2082,-111 2166.9,-111 2264.51,-111 2329.16,-111"/>
<polygon fill="black" stroke="black" points="2329.25,-114.5 2339.25,-111 2329.25,-107.5 2329.25,-114.5"/>
<text text-anchor="middle" x="1533.5" y="-113.8" font-family="Times,serif" font-size="9.00">run unit tests / test utilities</text>
</g>
<!-- CTS -->
<g id="node16" class="node">
<title>CTS</title>
<path fill="none" stroke="black" d="M2455.5,-300C2455.5,-300 2348.5,-300 2348.5,-300 2342.5,-300 2336.5,-294 2336.5,-288 2336.5,-288 2336.5,-276 2336.5,-276 2336.5,-270 2342.5,-264 2348.5,-264 2348.5,-264 2455.5,-264 2455.5,-264 2461.5,-264 2467.5,-270 2467.5,-276 2467.5,-276 2467.5,-288 2467.5,-288 2467.5,-294 2461.5,-300 2455.5,-300"/>
<text text-anchor="middle" x="2402" y="-279.5" font-family="Times,serif" font-size="10.00">CTS / Transport Mgmt</text>
</g>
<!-- vsp&#45;&gt;CTS -->
<g id="edge11" class="edge">
<title>vsp&#45;&gt;CTS</title>
<path fill="none" stroke="black" d="M865.39,-276.03C940.92,-306.47 1031.33,-333 1117,-333 1117,-333 1117,-333 2082,-333 2166.51,-333 2262.06,-315.33 2326.37,-300.79"/>
<polygon fill="black" stroke="black" points="2327.45,-304.13 2336.42,-298.49 2325.89,-297.31 2327.45,-304.13"/>
<text text-anchor="middle" x="1533.5" y="-335.8" font-family="Times,serif" font-size="9.00">create/release/import transports</text>
</g>
<!-- ABAPGit -->
<g id="node17" class="node">
<title>ABAPGit</title>
<path fill="none" stroke="black" d="M1176.5,-466C1176.5,-466 1059.5,-466 1059.5,-466 1053.5,-466 1047.5,-460 1047.5,-454 1047.5,-454 1047.5,-442 1047.5,-442 1047.5,-436 1053.5,-430 1059.5,-430 1059.5,-430 1176.5,-430 1176.5,-430 1182.5,-430 1188.5,-436 1188.5,-442 1188.5,-442 1188.5,-454 1188.5,-454 1188.5,-460 1182.5,-466 1176.5,-466"/>
<text text-anchor="middle" x="1118" y="-451" font-family="Times,serif" font-size="10.00">abapGit</text>
<text text-anchor="middle" x="1118" y="-440" font-family="Times,serif" font-size="10.00">(ABAP↔Git serialization)</text>
</g>
<!-- vsp&#45;&gt;ABAPGit -->
<g id="edge13" class="edge">
<title>vsp&#45;&gt;ABAPGit</title>
<path fill="none" stroke="black" d="M878.07,-276.15C881.18,-279.33 884.16,-282.61 887,-286 905.15,-307.67 887.18,-325.06 905,-347 947,-398.71 976.34,-390.46 1037,-418 1043.17,-420.8 1049.69,-423.56 1056.23,-426.2"/>
<polygon fill="black" stroke="black" points="1055.21,-429.56 1065.79,-429.97 1057.78,-423.05 1055.21,-429.56"/>
<text text-anchor="middle" x="962" y="-412.8" font-family="Times,serif" font-size="9.00">export/import</text>
</g>
<!-- vsp&#45;&gt;CloudALM -->
<g id="edge25" class="edge">
<title>vsp&#45;&gt;CloudALM</title>
<path fill="none" stroke="black" d="M879.2,-276C881.94,-279.22 884.55,-282.56 887,-286 922.86,-336.4 871.36,-372.1 905,-424 942.44,-481.76 971.11,-485.09 1037,-505 1123.06,-531 1702.6,-539.53 1958.71,-542.04"/>
<polygon fill="black" stroke="black" points="1958.76,-545.55 1968.8,-542.14 1958.83,-538.55 1958.76,-545.55"/>
<text text-anchor="middle" x="1359.5" y="-535.8" font-family="Times,serif" font-size="9.00">publish evidence + link transports</text>
</g>
<!-- Atlassian_MCP&#45;&gt;Jira -->
<g id="edge23" class="edge">
<title>Atlassian_MCP&#45;&gt;Jira</title>
<path fill="none" stroke="black" stroke-dasharray="5,2" d="M653.49,-385.01C611.47,-407.26 536.93,-445.65 471,-474 349.59,-526.21 202.51,-577.12 126.85,-602.44"/>
<polygon fill="black" stroke="black" points="125.48,-599.21 117.1,-605.69 127.69,-605.85 125.48,-599.21"/>
</g>
<!-- Atlassian_MCP&#45;&gt;Confluence -->
<g id="edge24" class="edge">
<title>Atlassian_MCP&#45;&gt;Confluence</title>
<path fill="none" stroke="black" stroke-dasharray="5,2" d="M631.39,-367.25C502.59,-368.28 191.78,-373.51 153,-400 106.76,-431.58 87.88,-498.58 80.63,-536.78"/>
<polygon fill="black" stroke="black" points="77.17,-536.28 78.89,-546.73 84.06,-537.49 77.17,-536.28"/>
</g>
<!-- GitHub -->
<g id="node18" class="node">
<title>GitHub</title>
<path fill="none" stroke="black" d="M1384,-466C1384,-466 1335,-466 1335,-466 1329,-466 1323,-460 1323,-454 1323,-454 1323,-442 1323,-442 1323,-436 1329,-430 1335,-430 1335,-430 1384,-430 1384,-430 1390,-430 1396,-436 1396,-442 1396,-442 1396,-454 1396,-454 1396,-460 1390,-466 1384,-466"/>
<text text-anchor="middle" x="1359.5" y="-451" font-family="Times,serif" font-size="10.00">GitHub</text>
<text text-anchor="middle" x="1359.5" y="-440" font-family="Times,serif" font-size="10.00">(repo, PRs)</text>
</g>
<!-- ABAPGit&#45;&gt;GitHub -->
<g id="edge14" class="edge">
<title>ABAPGit&#45;&gt;GitHub</title>
<path fill="none" stroke="black" d="M1188.6,-448C1228.4,-448 1277.22,-448 1312.3,-448"/>
<polygon fill="black" stroke="black" points="1312.72,-451.5 1322.72,-448 1312.72,-444.5 1312.72,-451.5"/>
<text text-anchor="middle" x="1239" y="-450.8" font-family="Times,serif" font-size="9.00">push/pull</text>
</g>
<!-- GHA -->
<g id="node19" class="node">
<title>GHA</title>
<path fill="none" stroke="black" d="M1775.5,-471.5C1775.5,-471.5 1691.5,-471.5 1691.5,-471.5 1685.5,-471.5 1679.5,-465.5 1679.5,-459.5 1679.5,-459.5 1679.5,-442.5 1679.5,-442.5 1679.5,-436.5 1685.5,-430.5 1691.5,-430.5 1691.5,-430.5 1775.5,-430.5 1775.5,-430.5 1781.5,-430.5 1787.5,-436.5 1787.5,-442.5 1787.5,-442.5 1787.5,-459.5 1787.5,-459.5 1787.5,-465.5 1781.5,-471.5 1775.5,-471.5"/>
<text text-anchor="middle" x="1733.5" y="-459.5" font-family="Times,serif" font-size="10.00">GitHub Actions</text>
<text text-anchor="middle" x="1733.5" y="-448.5" font-family="Times,serif" font-size="10.00">(CI, policy checks,</text>
<text text-anchor="middle" x="1733.5" y="-437.5" font-family="Times,serif" font-size="10.00">PR automation)</text>
</g>
<!-- GitHub&#45;&gt;GHA -->
<g id="edge15" class="edge">
<title>GitHub&#45;&gt;GHA</title>
<path fill="none" stroke="black" d="M1396.17,-448.29C1459.08,-448.8 1590.54,-449.86 1669.18,-450.49"/>
<polygon fill="black" stroke="black" points="1669.42,-453.99 1679.44,-450.57 1669.47,-446.99 1669.42,-453.99"/>
<text text-anchor="middle" x="1533.5" y="-452.8" font-family="Times,serif" font-size="9.00">triggers</text>
</g>
<!-- PyTest -->
<g id="node20" class="node">
<title>PyTest</title>
<path fill="none" stroke="black" d="M2107.5,-469C2107.5,-469 2054.5,-469 2054.5,-469 2048.5,-469 2042.5,-463 2042.5,-457 2042.5,-457 2042.5,-445 2042.5,-445 2042.5,-439 2048.5,-433 2054.5,-433 2054.5,-433 2107.5,-433 2107.5,-433 2113.5,-433 2119.5,-439 2119.5,-445 2119.5,-445 2119.5,-457 2119.5,-457 2119.5,-463 2113.5,-469 2107.5,-469"/>
<text text-anchor="middle" x="2081" y="-454" font-family="Times,serif" font-size="10.00">PyTest repo</text>
<text text-anchor="middle" x="2081" y="-443" font-family="Times,serif" font-size="10.00">(GitHub)</text>
</g>
<!-- GHA&#45;&gt;PyTest -->
<g id="edge16" class="edge">
<title>GHA&#45;&gt;PyTest</title>
<path fill="none" stroke="black" stroke-dasharray="5,2" d="M1787.73,-451C1854.43,-451 1967.76,-451 2031.94,-451"/>
<polygon fill="black" stroke="black" points="2032.19,-454.5 2042.19,-451 2032.19,-447.5 2032.19,-454.5"/>
<text text-anchor="middle" x="1904.5" y="-453.8" font-family="Times,serif" font-size="9.00">execute</text>
</g>
<!-- GHA&#45;&gt;CloudALM -->
<g id="edge26" class="edge">
<title>GHA&#45;&gt;CloudALM</title>
<path fill="none" stroke="black" stroke-dasharray="5,2" d="M1787.69,-462.76C1831.66,-472.73 1895.65,-487.79 1951,-503 1963.34,-506.39 1976.29,-510.16 1989.01,-513.98"/>
<polygon fill="black" stroke="black" points="1988.1,-517.36 1998.69,-516.91 1990.13,-510.66 1988.1,-517.36"/>
<text text-anchor="middle" x="1904.5" y="-505.8" font-family="Times,serif" font-size="9.00">publish CI evidence</text>
</g>
<!-- CloudALM&#45;&gt;CTS -->
<g id="edge28" class="edge">
<title>CloudALM&#45;&gt;CTS</title>
<path fill="none" stroke="black" stroke-dasharray="5,2" d="M2171.11,-516.96C2178.75,-513.41 2186.16,-509.43 2193,-505 2277.1,-450.5 2350.56,-354.66 2383.13,-308.43"/>
<polygon fill="black" stroke="black" points="2386.06,-310.34 2388.9,-300.13 2380.32,-306.33 2386.06,-310.34"/>
<text text-anchor="middle" x="2259.5" y="-493.8" font-family="Times,serif" font-size="9.00">deploy orchestration</text>
</g>
<!-- RT_Evidence -->
<g id="node22" class="node">
<title>RT_Evidence</title>
<path fill="none" stroke="black" d="M2457.5,-561C2457.5,-561 2346.5,-561 2346.5,-561 2340.5,-561 2334.5,-555 2334.5,-549 2334.5,-549 2334.5,-537 2334.5,-537 2334.5,-531 2340.5,-525 2346.5,-525 2346.5,-525 2457.5,-525 2457.5,-525 2463.5,-525 2469.5,-531 2469.5,-537 2469.5,-537 2469.5,-549 2469.5,-549 2469.5,-555 2463.5,-561 2457.5,-561"/>
<text text-anchor="middle" x="2402" y="-546" font-family="Times,serif" font-size="10.00">RT Test Evidence Store</text>
<text text-anchor="middle" x="2402" y="-535" font-family="Times,serif" font-size="10.00">(optional mirror)</text>
</g>
<!-- CloudALM&#45;&gt;RT_Evidence -->
<g id="edge17" class="edge">
<title>CloudALM&#45;&gt;RT_Evidence</title>
<path fill="none" stroke="black" stroke-dasharray="5,2" d="M2193.12,-543C2236.46,-543 2285.06,-543 2324.37,-543"/>
<polygon fill="black" stroke="black" points="2324.41,-546.5 2334.41,-543 2324.41,-539.5 2324.41,-546.5"/>
<text text-anchor="middle" x="2259.5" y="-545.8" font-family="Times,serif" font-size="9.00">optional sync</text>
</g>
<!-- RT_Dash -->
<g id="node23" class="node">
<title>RT_Dash</title>
<path fill="none" stroke="black" d="M2631,-561C2631,-561 2527,-561 2527,-561 2521,-561 2515,-555 2515,-549 2515,-549 2515,-537 2515,-537 2515,-531 2521,-525 2527,-525 2527,-525 2631,-525 2631,-525 2637,-525 2643,-531 2643,-537 2643,-537 2643,-549 2643,-549 2643,-555 2637,-561 2631,-561"/>
<text text-anchor="middle" x="2579" y="-546" font-family="Times,serif" font-size="10.00">RT SDLC Dashboards</text>
<text text-anchor="middle" x="2579" y="-535" font-family="Times,serif" font-size="10.00">(optional)</text>
</g>
<!-- RT_Evidence&#45;&gt;RT_Dash -->
<g id="edge18" class="edge">
<title>RT_Evidence&#45;&gt;RT_Dash</title>
<path fill="none" stroke="black" stroke-dasharray="5,2" d="M2469.66,-543C2481.16,-543 2493.18,-543 2504.85,-543"/>
<polygon fill="black" stroke="black" points="2504.99,-546.5 2514.99,-543 2504.99,-539.5 2504.99,-546.5"/>
</g>
<!-- Tricentis -->
<g id="node24" class="node">
<title>Tricentis</title>
<path fill="none" stroke="black" d="M1810,-591C1810,-591 1657,-591 1657,-591 1651,-591 1645,-585 1645,-579 1645,-579 1645,-567 1645,-567 1645,-561 1651,-555 1657,-555 1657,-555 1810,-555 1810,-555 1816,-555 1822,-561 1822,-567 1822,-567 1822,-579 1822,-579 1822,-585 1816,-591 1810,-591"/>
<text text-anchor="middle" x="1733.5" y="-576" font-family="Times,serif" font-size="10.00">Tricentis / SAP Test Automation</text>
<text text-anchor="middle" x="1733.5" y="-565" font-family="Times,serif" font-size="10.00">(E2E, regression, perf)</text>
</g>
<!-- Tricentis&#45;&gt;CloudALM -->
<g id="edge27" class="edge">
<title>Tricentis&#45;&gt;CloudALM</title>
<path fill="none" stroke="black" stroke-dasharray="5,2" d="M1822.13,-565.39C1863.58,-561.79 1913.74,-557.44 1958.76,-553.53"/>
<polygon fill="black" stroke="black" points="1959.23,-557 1968.88,-552.65 1958.62,-550.03 1959.23,-557"/>
<text text-anchor="middle" x="1904.5" y="-563.8" font-family="Times,serif" font-size="9.00">E2E evidence</text>
</g>
</g>
</svg>
